Taur Mitran Di 2012
Punjabi Movie
dvd scr


Format                                   : Matroska
Format version                           : Version 2
File size                                : 691 MiB
Duration                                 : 2h 15mn
Overall bit rate                         : 714 Kbps

Video
ID                                       : 1
Format                                   : MPEG-4 Visual
Format profile                           : Advanced Simple@L5
Format settings, BVOP                    : Yes
Format settings, QPel                    : No
Format settings, GMC                     : No warppoints
Format settings, Matrix                  : Default (H.263)
Codec ID                                 : XVID
Codec ID/Hint                            : XviD
Duration                                 : 2h 15mn
Bit rate                                 : 604 Kbps
Width                                    : 608 pixels
Height                                   : 272 pixels
Display aspect ratio                     : 2.25:1
Frame rate                               : 23.976 fps
Color space                              : YUV
Chroma subsampling                       : 4:2:0
Bit depth                                : 8 bits
Scan type                                : Progressive
Compression mode                         : Lossy
Bits/(Pixel*Frame)                       : 0.152
Stream size                              : 584 MiB (85%)
Title                                    :
Writing library                          : XviD 1.2.1 (UTC 2008-12-04)
Default                                  : Yes
Forced                                   : No

Audio
ID                                       : 2
Format                                   : MPEG Audio
Format version                           : Version 1
Format profile                           : Layer 3
Mode                                     : Joint stereo
Mode extension                           : MS Stereo
Muxing mode                              : Header stripping
Codec ID                                 : A_MPEG/L3
Codec ID/Hint                            : MP3
Duration                                 : 2h 15mn
Bit rate mode                            : Constant
Bit rate                                 : 96.0 Kbps
Channel(s)                               : 2 channels
Sampling rate                            : 32.0 KHz
Compression mode                         : Lossy
Stream size                              : 92.8 MiB (13%)


Screens: 
http://i.minus.com/iA7icNqmiggOQ.jpg 
http://i.minus.com/ibukT1oOnKRJ2p.jpg 
http://i.minus.com/iM9sSpNr3l1eX.jpg 
http://i.minus.com/ibgiKxGOCQ9Z1W.jpg 
http://i.minus.com/iYGzRoLNx5Gun.jpg

credit:ICTV